<svg width="512px" height="512px" viewBox="-10.5 -10.5 512 512" fill="none" xmlns="http://www.w3.org/2000/svg">
<path d="M245.313 486.627C378.587 486.627 486.627 378.587 486.627 245.313C486.627 112.04 378.587 4 245.313 4C112.04 4 4 112.04 4 245.313C4 378.587 112.04 486.627 245.313 486.627Z" fill="#2E3548" stroke="#AFAFAF" stroke-width="8"/>
<path d="M310.695 159.55C325.575 159.55 340.455 159.55 355.786 159.55C355.786 185.218 355.786 210.886 355.786 237.332C340.906 237.332 326.026 237.332 310.695 237.332C310.695 211.664 310.695 185.996 310.695 159.55Z" fill="#DE2815"/>
<path d="M252.077 159.55C267.329 159.55 282.581 159.55 298.295 159.55C298.295 200.842 298.295 242.134 298.295 284.677C283.043 284.677 267.791 284.677 252.077 284.677C252.077 243.385 252.077 202.093 252.077 159.55Z" fill="#EF7E16"/>
<path d="M134.841 159.55C149.721 159.55 164.601 159.55 179.932 159.55C179.932 234.694 179.932 309.838 179.932 387.259C165.052 387.259 150.172 387.259 134.841 387.259C134.841 312.115 134.841 236.971 134.841 159.55Z" fill="#009FE2"/>
<path d="M193.459 159.55C208.711 159.55 223.963 159.55 239.677 159.55C239.677 221.302 239.677 283.054 239.677 346.677C224.425 346.677 209.173 346.677 193.459 346.677C193.459 284.925 193.459 223.173 193.459 159.55Z" fill="#C7D301"/>
<path d="M135.159 125.818C135.546 125.817 135.933 125.816 136.332 125.815C137.405 125.812 138.478 125.813 139.551 125.814C140.718 125.815 141.886 125.813 143.054 125.81C145.1 125.807 147.146 125.806 149.192 125.807C152.235 125.808 155.278 125.805 158.321 125.802C164.071 125.796 169.822 125.794 175.573 125.793C180.013 125.793 184.454 125.792 188.895 125.79C190.173 125.789 191.451 125.789 192.729 125.788C193.206 125.788 193.206 125.788 193.692 125.788C202.63 125.784 211.568 125.781 220.506 125.782C221.011 125.782 221.011 125.782 221.527 125.782C223.235 125.782 224.943 125.782 226.651 125.782C226.99 125.782 227.329 125.782 227.679 125.782C228.365 125.782 229.051 125.782 229.737 125.782C240.41 125.782 251.084 125.777 261.758 125.769C273.749 125.759 285.739 125.753 297.73 125.754C299.009 125.754 300.287 125.754 301.566 125.754C301.881 125.754 302.196 125.754 302.52 125.754C307.586 125.754 312.653 125.75 317.72 125.745C322.811 125.739 327.903 125.738 332.994 125.743C336.019 125.745 339.044 125.744 342.069 125.738C344.09 125.734 346.111 125.735 348.132 125.739C349.284 125.742 350.435 125.742 351.586 125.737C352.828 125.731 354.069 125.736 355.311 125.741C355.666 125.738 356.021 125.735 356.386 125.732C359.878 125.763 363.208 126.536 365.794 129.096C365.986 129.283 366.178 129.471 366.376 129.664C368.703 132.166 369.354 134.99 369.311 138.41C369.173 141.676 367.827 144.357 365.545 146.572C362.8 148.879 360.072 149.417 356.613 149.389C356.222 149.391 355.83 149.393 355.426 149.394C354.341 149.399 353.257 149.396 352.172 149.392C350.991 149.389 349.809 149.393 348.628 149.396C346.559 149.401 344.49 149.401 342.42 149.398C339.343 149.393 336.266 149.395 333.189 149.399C327.693 149.406 322.197 149.405 316.701 149.402C311.892 149.398 307.082 149.397 302.273 149.399C301.795 149.399 301.795 149.399 301.306 149.399C300.012 149.4 298.717 149.4 297.422 149.401C285.275 149.404 273.129 149.401 260.982 149.394C250.189 149.388 239.396 149.388 228.603 149.395C216.478 149.401 204.354 149.404 192.229 149.4C190.937 149.4 189.644 149.399 188.352 149.399C188.034 149.399 187.716 149.399 187.388 149.399C182.581 149.397 177.775 149.399 172.968 149.402C167.503 149.406 162.038 149.405 156.573 149.398C153.514 149.394 150.455 149.394 147.396 149.399C145.353 149.402 143.31 149.4 141.267 149.394C140.103 149.391 138.939 149.39 137.775 149.395C136.52 149.4 135.266 149.395 134.012 149.389C133.651 149.392 133.29 149.395 132.918 149.398C129.632 149.367 126.95 148.386 124.524 146.032C122.195 143.424 121.261 140.616 121.316 137.075C121.461 133.772 122.481 131.533 124.68 129.169C127.865 126.198 131.019 125.803 135.159 125.818Z" fill="#686868"/>
<path d="M310.695 104.313C325.575 104.313 340.455 104.313 355.786 104.313C355.786 107.661 355.786 111.009 355.786 114.459C340.906 114.459 326.026 114.459 310.695 114.459C310.695 111.111 310.695 107.763 310.695 104.313Z" fill="#DF2714"/>
<path d="M252.077 104.313C267.329 104.313 282.581 104.313 298.295 104.313C298.295 107.661 298.295 111.009 298.295 114.459C283.043 114.459 267.791 114.459 252.077 114.459C252.077 111.111 252.077 107.763 252.077 104.313Z" fill="#F07D16"/>
<path d="M134.841 104.313C149.721 104.313 164.601 104.313 179.932 104.313C179.932 107.661 179.932 111.009 179.932 114.459C165.052 114.459 150.172 114.459 134.841 114.459C134.841 111.111 134.841 107.763 134.841 104.313Z" fill="#009FE2"/>
<path d="M194.524 104.314C194.862 104.314 195.201 104.314 195.549 104.315C195.936 104.314 196.323 104.314 196.721 104.313C197.153 104.314 197.586 104.315 198.018 104.316C198.471 104.317 198.923 104.317 199.375 104.316C200.607 104.316 201.839 104.318 203.071 104.32C204.356 104.322 205.642 104.322 206.928 104.322C209.365 104.323 211.801 104.326 214.238 104.328C217.011 104.332 219.785 104.333 222.558 104.335C228.264 104.338 233.971 104.343 239.677 104.349C239.677 107.685 239.677 111.022 239.677 114.459C224.425 114.459 209.173 114.459 193.459 114.459C193.459 104.364 193.459 104.364 194.524 104.314Z" fill="#C7D301"/>
</svg>
