<?xml version="1.0" encoding="UTF-8" standalone="no"?>
<!-- Created with Inkscape (http://www.inkscape.org/) -->

<svg
   width="512"
   height="512"
   viewBox="0 0 512 512"
   version="1.1"
   id="svg1"
   xml:space="preserve"
   inkscape:version="1.4.2 (f4327f4, 2025-05-13)"
   sodipodi:docname="qdrant.svg"
   xmlns:inkscape="http://www.inkscape.org/namespaces/inkscape"
   xmlns:sodipodi="http://sodipodi.sourceforge.net/DTD/sodipodi-0.dtd"
   xmlns="http://www.w3.org/2000/svg"
   xmlns:svg="http://www.w3.org/2000/svg"><sodipodi:namedview
     id="namedview1"
     pagecolor="#ffffff"
     bordercolor="#999999"
     borderopacity="1"
     inkscape:showpageshadow="2"
     inkscape:pageopacity="0"
     inkscape:pagecheckerboard="0"
     inkscape:deskcolor="#d1d1d1"
     inkscape:document-units="px"
     showgrid="false"
     inkscape:zoom="1"
     inkscape:cx="160.5"
     inkscape:cy="323"
     inkscape:window-width="1920"
     inkscape:window-height="991"
     inkscape:window-x="-9"
     inkscape:window-y="-9"
     inkscape:window-maximized="1"
     inkscape:current-layer="layer1"><inkscape:grid
       id="grid1"
       units="mm"
       originx="0"
       originy="0"
       spacingx="1"
       spacingy="1"
       empcolor="#0099e5"
       empopacity="0.30196078"
       color="#0099e5"
       opacity="0.14901961"
       empspacing="5"
       enabled="true"
       visible="false" /></sodipodi:namedview><defs
     id="defs1"><inkscape:path-effect
       effect="fillet_chamfer"
       id="path-effect1"
       is_visible="true"
       lpeversion="1"
       nodesatellites_param="F,0,0,1,0,2.2572315,0,1 @ F,0,0,1,0,2.608162,0,1 @ F,0,0,1,0,2.5997618,0,1 @ F,0,0,1,0,3.0078049,0,1 @ F,0,0,1,0,2.2522004,0,1 @ F,0,0,1,0,2.8010871,0,1"
       radius="0"
       unit="px"
       method="auto"
       mode="F"
       chamfer_steps="1"
       flexible="false"
       use_knot_distance="true"
       apply_no_radius="true"
       apply_with_radius="true"
       only_selected="false"
       hide_knots="false" /><linearGradient
       id="logosQdrantIcon0"
       x1="162.10501"
       x2="107.50494"
       y1="152.17984"
       y2="152.17984"
       gradientTransform="scale(0.74339867,1.3451733)"
       gradientUnits="userSpaceOnUse"><stop
         offset="0%"
         stop-color="#FF3364"
         id="stop1" /><stop
         offset="100%"
         stop-color="#C91540"
         stop-opacity="0"
         id="stop2" /></linearGradient></defs><g
     inkscape:label="Layer 1"
     inkscape:groupmode="layer"
     id="layer1"><circle
       style="fill:#2e3548;fill-opacity:1;stroke:#858585;stroke-width:8;stroke-dasharray:none;stroke-opacity:1"
       id="path1"
       inkscape:label="background"
       cx="256.00003"
       cy="256.00006"
       r="241.31339" /><g
       id="g1"
       transform="matrix(1.1366212,0,0,1.1366212,110.51249,87.999999)"><path
         fill="#24386c"
         d="M 201.317,271.722 195.423,109.213 184.748,66.368 256,73.911 v 196.582 l -43.525,25.12 z"
         id="path2" /><path
         fill="#7589be"
         d="M 255.995,73.9 212.47,99.037 122.65,79.335 17.516,122.14 0,73.9 63.988,36.95 127.996,0 l 63.99,36.95 z"
         id="path3" /><path
         fill="#b2bfe8"
         d="m 0.003,73.9 43.525,25.137 25.231,75.037 85.19,68.162 -25.948,53.363 -64.008,-36.952 -63.99,-36.95 V 73.898"
         id="path4" /><path
         fill="#24386c"
         d="m 156.857,202.807 -28.856,42.54 v 50.256 l 40.946,-23.625 21.097,-31.503"
         id="path5" /><path
         fill="#7589be"
         d="m 128.019,195.107 -40.963,-70.922 8.823,-23.507 33.542,-16.262 39.525,39.77 z"
         id="path6" /><path
         fill="#b2bfe8"
         d="m 87.056,124.179 40.945,23.625 v 47.288 l -37.869,1.629 -22.907,-29.25 19.831,-43.292"
         id="path7" /><path
         fill="#24386c"
         d="m 128.001,147.8 40.946,-23.623 27.866,46.4 -33.722,27.862 -35.09,-3.35 z"
         id="path8" /><path
         fill="#dc244c"
         d="m 168.947,271.975 43.525,23.626 V 99.04 L 170.227,74.66 128,50.276 85.756,74.658 43.53,99.04 v 97.542 l 42.226,24.381 42.245,24.383 40.946,-23.646 v 50.276 z m 0,-100.531 L 128,195.088 87.055,171.444 V 124.175 L 128,100.531 l 40.946,23.644 v 47.269"
         id="path9" /><path
         fill="url(#logosQdrantIcon0)"
         d="M 128.019,245.363 V 195.099 L 87.286,171.657 v 50.18 z"
         id="path10"
         style="fill:url(#logosQdrantIcon0)" /></g></g></svg>
