<?xml version="1.0" encoding="UTF-8" standalone="no"?>
<!-- Created with Inkscape (http://www.inkscape.org/) -->

<svg
   width="512"
   height="512"
   viewBox="0 0 512 512"
   version="1.1"
   id="svg1"
   xml:space="preserve"
   inkscape:version="1.4.2 (f4327f4, 2025-05-13)"
   sodipodi:docname="qubes-os.svg"
   xmlns:inkscape="http://www.inkscape.org/namespaces/inkscape"
   xmlns:sodipodi="http://sodipodi.sourceforge.net/DTD/sodipodi-0.dtd"
   xmlns="http://www.w3.org/2000/svg"
   xmlns:svg="http://www.w3.org/2000/svg"><sodipodi:namedview
     id="namedview1"
     pagecolor="#ffffff"
     bordercolor="#999999"
     borderopacity="1"
     inkscape:showpageshadow="2"
     inkscape:pageopacity="0"
     inkscape:pagecheckerboard="0"
     inkscape:deskcolor="#d1d1d1"
     inkscape:document-units="px"
     showgrid="false"
     inkscape:zoom="1"
     inkscape:cx="160.5"
     inkscape:cy="323"
     inkscape:window-width="1920"
     inkscape:window-height="991"
     inkscape:window-x="-9"
     inkscape:window-y="-9"
     inkscape:window-maximized="1"
     inkscape:current-layer="layer1"><inkscape:grid
       id="grid1"
       units="mm"
       originx="0"
       originy="0"
       spacingx="1"
       spacingy="1"
       empcolor="#0099e5"
       empopacity="0.30196078"
       color="#0099e5"
       opacity="0.14901961"
       empspacing="5"
       enabled="true"
       visible="false" /></sodipodi:namedview><defs
     id="defs1"><inkscape:path-effect
       effect="fillet_chamfer"
       id="path-effect1"
       is_visible="true"
       lpeversion="1"
       nodesatellites_param="F,0,0,1,0,2.2572315,0,1 @ F,0,0,1,0,2.608162,0,1 @ F,0,0,1,0,2.5997618,0,1 @ F,0,0,1,0,3.0078049,0,1 @ F,0,0,1,0,2.2522004,0,1 @ F,0,0,1,0,2.8010871,0,1"
       radius="0"
       unit="px"
       method="auto"
       mode="F"
       chamfer_steps="1"
       flexible="false"
       use_knot_distance="true"
       apply_no_radius="true"
       apply_with_radius="true"
       only_selected="false"
       hide_knots="false" /></defs><g
     inkscape:label="Layer 1"
     inkscape:groupmode="layer"
     id="layer1"><circle
       style="fill:#2e3548;fill-opacity:1;stroke:#858585;stroke-width:8;stroke-dasharray:none;stroke-opacity:1"
       id="path1"
       inkscape:label="background"
       cx="256.00003"
       cy="256.00006"
       r="241.31339" /><g
       transform="matrix(2.1155394,0,0,2.1155394,1981.4895,34.667861)"
       id="g4564-7-20-7"><path
         inkscape:connector-curvature="0"
         d="m -816.29256,25.213916 a 15.881612,15.918136 0 0 0 -8.31714,2.13505 l -53.64783,31.03382 a 15.881612,15.918136 0 0 0 -7.94525,13.78376 V 134.2667 a 15.881612,15.918136 0 0 0 7.94525,13.7676 l 53.64783,31.0582 a 15.881612,15.918136 0 0 0 15.88236,0 l 53.65597,-31.0582 a 15.881612,15.918136 0 0 0 7.93712,-13.7676 V 72.166546 a 15.881612,15.918136 0 0 0 -7.93712,-13.78376 l -53.65597,-31.03382 a 15.881612,15.918136 0 0 0 -7.56522,-2.13505 z m -0.17228,35.10079 a 8.7348856,8.7549739 0 0 1 4.16363,1.16899 l 29.5122,17.07142 a 8.7348856,8.7549739 0 0 1 4.36627,7.58204 v 34.159124 a 8.7348856,8.7549739 0 0 1 -4.36627,7.56559 l -29.5122,17.08767 a 8.7348856,8.7549739 0 0 1 -8.73053,0 l -29.51323,-17.08767 a 8.7348856,8.7549739 0 0 1 -4.36527,-7.56559 V 86.137156 a 8.7348856,8.7549739 0 0 1 4.36527,-7.58204 l 29.51323,-17.07142 a 8.7348856,8.7549739 0 0 1 4.5669,-1.16899 z"
         id="path3946-56-5-8-6"
         style="fill:#63a0ff;fill-opacity:1" /><path
         style="fill:#3874d8;fill-opacity:1;stroke:none"
         d="m -749.2643,64.233086 -30.33985,17.55078 a 8.7348856,8.7549739 0 0 1 1.17383,4.375 v 34.150394 a 8.7348856,8.7549739 0 0 1 -4.36523,7.57422 l -29.50391,17.08008 a 8.7348856,8.7549739 0 0 1 -4.34961,1.16016 v 35.10156 a 15.881612,15.918136 0 0 0 7.92188,-2.11914 l 11.93554,-6.90821 15.23047,8.86329 c 6.81216,3.96431 17.77964,3.96431 24.5918,0 l 6.81055,-3.9629 c 6.81216,-3.96431 6.81216,-10.34818 0,-14.3125 l -15.14649,-8.81445 10.23438,-5.92383 a 15.881612,15.918136 0 0 0 7.9375,-13.76757 V 72.188166 a 15.881612,15.918136 0 0 0 -2.13086,-7.95508 z"
         id="path3948-7-5-9-5"
         inkscape:connector-curvature="0" /><path
         inkscape:connector-curvature="0"
         d="m -884.05762,64.206666 30.33395,17.55954 a 8.7348856,8.7549739 0 0 1 3.19291,-3.20714 l 29.50814,-17.07538 a 8.7348856,8.7549739 0 0 1 8.72648,0.003 l 29.51015,17.07082 a 8.7348856,8.7549739 0 0 1 3.17769,3.19475 l 30.32789,-17.55009 a 15.881612,15.918136 0 0 0 -5.79096,-5.81618 l -53.66405,-31.04522 a 15.881612,15.918136 0 0 0 -15.86414,-0.005 l -53.64884,31.04612 a 15.881612,15.918136 0 0 0 -5.80922,5.82653 z"
         id="path3950-9-9-3-4"
         style="fill:#99bfff;fill-opacity:1;stroke:none" /></g></g></svg>
