<?xml version="1.0" encoding="UTF-8" standalone="no"?>
<!-- Created with Inkscape (http://www.inkscape.org/) -->

<svg
   width="512"
   height="512"
   viewBox="0 0 512 512"
   version="1.1"
   id="svg1"
   xml:space="preserve"
   inkscape:version="1.4.2 (f4327f4, 2025-05-13)"
   sodipodi:docname="tauri.svg"
   xmlns:inkscape="http://www.inkscape.org/namespaces/inkscape"
   xmlns:sodipodi="http://sodipodi.sourceforge.net/DTD/sodipodi-0.dtd"
   xmlns="http://www.w3.org/2000/svg"
   xmlns:svg="http://www.w3.org/2000/svg"><sodipodi:namedview
     id="namedview1"
     pagecolor="#ffffff"
     bordercolor="#999999"
     borderopacity="1"
     inkscape:showpageshadow="2"
     inkscape:pageopacity="0"
     inkscape:pagecheckerboard="0"
     inkscape:deskcolor="#d1d1d1"
     inkscape:document-units="px"
     showgrid="false"
     inkscape:zoom="1"
     inkscape:cx="160.5"
     inkscape:cy="323"
     inkscape:window-width="1920"
     inkscape:window-height="991"
     inkscape:window-x="-9"
     inkscape:window-y="-9"
     inkscape:window-maximized="1"
     inkscape:current-layer="layer1"><inkscape:grid
       id="grid1"
       units="mm"
       originx="0"
       originy="0"
       spacingx="1"
       spacingy="1"
       empcolor="#0099e5"
       empopacity="0.30196078"
       color="#0099e5"
       opacity="0.14901961"
       empspacing="5"
       enabled="true"
       visible="false" /></sodipodi:namedview><defs
     id="defs1"><inkscape:path-effect
       effect="fillet_chamfer"
       id="path-effect1"
       is_visible="true"
       lpeversion="1"
       nodesatellites_param="F,0,0,1,0,2.2572315,0,1 @ F,0,0,1,0,2.608162,0,1 @ F,0,0,1,0,2.5997618,0,1 @ F,0,0,1,0,3.0078049,0,1 @ F,0,0,1,0,2.2522004,0,1 @ F,0,0,1,0,2.8010871,0,1"
       radius="0"
       unit="px"
       method="auto"
       mode="F"
       chamfer_steps="1"
       flexible="false"
       use_knot_distance="true"
       apply_no_radius="true"
       apply_with_radius="true"
       only_selected="false"
       hide_knots="false" /></defs><g
     inkscape:label="Layer 1"
     inkscape:groupmode="layer"
     id="layer1"><circle
       style="fill:#2e3548;fill-opacity:1;stroke:#858585;stroke-width:8;stroke-dasharray:none;stroke-opacity:1"
       id="path1"
       inkscape:label="background"
       cx="256.00003"
       cy="256.00006"
       r="241.31339" /><g
       id="g1"
       transform="matrix(2.6249524,0,0,2.6249524,88.62386,88.003046)"><path
         fill="#ffc131"
         d="m 86.242,46.547 a 12.19,12.19 0 0 1 -24.379,0 c 0,-6.734 5.457,-12.191 12.191,-12.191 a 12.19,12.19 0 0 1 12.188,12.191 z m 0,0"
         id="path1-0" /><path
         fill="#24c8db"
         d="m 41.359,81.453 a 12.1915,12.1915 0 1 1 24.383,0 c 0,6.734 -5.457,12.191 -12.191,12.191 -6.734,0 -12.191,-5.457 -12.191,-12.191 z m 0,0"
         id="path2" /><path
         fill="#ffc131"
         d="M 99.316,85.637 A 46.5,46.5 0 0 1 83.257,92.172 32.675,32.675 0 0 0 85.054,81.453 33.3,33.3 0 0 0 84.812,77.433 32.69,32.69 0 0 0 91.808,74.015 32.7,32.7 0 0 0 103.874,59.98 32.71,32.71 0 0 0 82.863,15.046 32.72,32.72 0 0 0 48.953,25.573 32.85,32.85 0 0 0 47.473,27.483 54.32,54.32 0 0 0 29.625,32.667 46.536,46.536 0 0 1 60.25,2.094 46.53,46.53 0 0 1 86.59,1.719 c 8.633,2.418 16.387,7.273 22.324,13.984 5.937,6.711 9.813,15 11.16,23.863 A 46.537,46.537 0 0 1 99.316,85.637 Z M 30.18,41.156 41.59,42.558 a 32.44,32.44 0 0 1 1.473,-6.469 46.44,46.44 0 0 0 -12.883,5.066 z m 0,0"
         id="path3" /><path
         fill="#24c8db"
         d="m 28.207,42.363 a 46.49,46.49 0 0 1 16.188,-6.559 32.603,32.603 0 0 0 -2.004,11.297 32.56,32.56 0 0 0 0.188,3.512 32.738,32.738 0 0 0 -6.859,3.371 32.7,32.7 0 0 0 -12.068,14.036 c -2.59,5.742 -3.461,12.113 -2.52,18.34 0.941,6.227 3.668,12.051 7.844,16.77 4.176,4.719 9.617,8.129 15.684,9.824 6.067,1.695 12.496,1.605 18.512,-0.262 a 32.72,32.72 0 0 0 15.402,-10.266 34.9,34.9 0 0 0 1.484,-1.918 54.283,54.283 0 0 0 17.855,-5.223 46.528,46.528 0 0 1 -8.723,16.012 46.511,46.511 0 0 1 -21.918,14.609 46.53,46.53 0 0 1 -26.34,0.375 A 46.6,46.6 0 0 1 18.608,112.297 46.56,46.56 0 0 1 7.453,88.434 46.53,46.53 0 0 1 11.035,62.336 46.533,46.533 0 0 1 28.207,42.363 Z m 69.074,44.473 c -0.059,0.035 -0.121,0.066 -0.18,0.102 0.059,-0.035 0.121,-0.066 0.18,-0.102 z m 0,0"
         id="path4" /></g></g></svg>
