<?xml version="1.0" encoding="UTF-8" standalone="no"?>
<!-- Created with Inkscape (http://www.inkscape.org/) -->

<svg
   width="512"
   height="512"
   viewBox="0 0 512 512"
   version="1.1"
   id="svg1"
   xml:space="preserve"
   inkscape:version="1.4.2 (f4327f4, 2025-05-13)"
   sodipodi:docname="threads.svg"
   xmlns:inkscape="http://www.inkscape.org/namespaces/inkscape"
   xmlns:sodipodi="http://sodipodi.sourceforge.net/DTD/sodipodi-0.dtd"
   xmlns="http://www.w3.org/2000/svg"
   xmlns:svg="http://www.w3.org/2000/svg"><sodipodi:namedview
     id="namedview1"
     pagecolor="#ffffff"
     bordercolor="#999999"
     borderopacity="1"
     inkscape:showpageshadow="2"
     inkscape:pageopacity="0"
     inkscape:pagecheckerboard="0"
     inkscape:deskcolor="#d1d1d1"
     inkscape:document-units="px"
     showgrid="false"
     inkscape:zoom="1"
     inkscape:cx="160.5"
     inkscape:cy="323"
     inkscape:window-width="1920"
     inkscape:window-height="991"
     inkscape:window-x="-9"
     inkscape:window-y="-9"
     inkscape:window-maximized="1"
     inkscape:current-layer="layer1"><inkscape:grid
       id="grid1"
       units="mm"
       originx="0"
       originy="0"
       spacingx="1"
       spacingy="1"
       empcolor="#0099e5"
       empopacity="0.30196078"
       color="#0099e5"
       opacity="0.14901961"
       empspacing="5"
       enabled="true"
       visible="false" /></sodipodi:namedview><defs
     id="defs1"><inkscape:path-effect
       effect="fillet_chamfer"
       id="path-effect1"
       is_visible="true"
       lpeversion="1"
       nodesatellites_param="F,0,0,1,0,2.2572315,0,1 @ F,0,0,1,0,2.608162,0,1 @ F,0,0,1,0,2.5997618,0,1 @ F,0,0,1,0,3.0078049,0,1 @ F,0,0,1,0,2.2522004,0,1 @ F,0,0,1,0,2.8010871,0,1"
       radius="0"
       unit="px"
       method="auto"
       mode="F"
       chamfer_steps="1"
       flexible="false"
       use_knot_distance="true"
       apply_no_radius="true"
       apply_with_radius="true"
       only_selected="false"
       hide_knots="false" /></defs><g
     inkscape:label="Layer 1"
     inkscape:groupmode="layer"
     id="layer1"><circle
       style="fill:#2e3548;fill-opacity:1;stroke:#858585;stroke-width:8;stroke-dasharray:none;stroke-opacity:1"
       id="path1"
       inkscape:label="background"
       cx="256.00003"
       cy="256.00006"
       r="241.31339" /><ellipse
       style="fill:#ffffff;stroke-width:0"
       id="path3"
       cx="258.63889"
       cy="247.49965"
       rx="182.3808"
       ry="188.02812" /><g
       style="opacity:1;fill:none;fill-rule:nonzero;stroke:none;stroke-width:0;stroke-linecap:butt;stroke-linejoin:miter;stroke-miterlimit:10;stroke-dasharray:none"
       transform="matrix(5.2777778,0,0,5.2777778,18.499999,18.499999)"
       id="g2">
	<path
   d="M 45,0 V 0 C 20.147,0 0,20.147 0,45 v 0 c 0,24.853 20.147,45 45,45 v 0 C 69.853,90 90,69.853 90,45 v 0 C 90,20.147 69.853,0 45,0 Z M 28.122,64.404 c 3.797,4.827 9.637,7.303 17.359,7.361 6.961,-0.051 11.567,-1.707 15.399,-5.536 4.374,-4.37 4.292,-9.73 2.893,-12.992 -0.823,-1.919 -2.312,-3.515 -4.322,-4.728 -0.49,3.648 -1.598,6.544 -3.351,8.778 -2.308,2.942 -5.617,4.551 -9.834,4.783 -3.193,0.175 -6.266,-0.596 -8.652,-2.17 -2.822,-1.863 -4.473,-4.715 -4.65,-8.03 -0.348,-6.535 4.836,-11.238 12.9,-11.703 2.863,-0.164 5.541,-0.035 8.017,0.386 -0.329,-2.011 -0.993,-3.604 -1.985,-4.756 -1.364,-1.583 -3.471,-2.396 -6.264,-2.413 -0.026,0 -0.052,0 -0.078,0 -2.242,0 -5.287,0.628 -7.227,3.571 l -4.665,-3.2 c 2.597,-3.941 6.816,-6.106 11.89,-6.106 0.038,0 0.077,0 0.115,0 8.482,0.054 13.533,5.347 14.035,14.591 0.288,0.124 0.573,0.253 0.852,0.387 3.958,1.898 6.852,4.773 8.37,8.312 2.116,4.935 2.309,12.975 -4.111,19.388 C 59.907,75.229 53.95,77.441 45.5,77.5 H 45.462 C 35.957,77.434 28.648,74.236 23.738,67.994 19.369,62.44 17.115,54.711 17.039,45.023 V 45 44.977 c 0.076,-9.688 2.33,-17.417 6.699,-22.971 4.91,-6.242 12.219,-9.44 21.724,-9.506 H 45.5 c 9.524,0.066 16.916,3.252 21.97,9.47 2.494,3.068 4.326,6.767 5.491,11.06 l -5.466,1.458 C 66.534,31.001 65.077,28.009 63.144,25.631 59.202,20.781 53.26,18.292 45.482,18.235 37.76,18.292 31.92,20.769 28.123,25.596 24.567,30.116 22.73,36.644 22.661,45 c 0.068,8.356 1.906,14.884 5.461,19.404 z"
   style="opacity:1;fill:#000000;fill-rule:nonzero;stroke:none;stroke-width:1;stroke-linecap:butt;stroke-linejoin:miter;stroke-miterlimit:10;stroke-dasharray:none"
   stroke-linecap="round"
   id="path1-0" />
	<path
   d="m 46.181,45.893 c -5.811,0.335 -7.738,3.146 -7.604,5.666 0.181,3.398 3.853,4.984 7.387,4.785 3.46,-0.19 7.388,-1.548 8.058,-9.91 -1.795,-0.392 -3.77,-0.598 -5.881,-0.598 -0.641,0 -1.294,0.018 -1.96,0.057 z"
   style="opacity:1;fill:#000000;fill-rule:nonzero;stroke:none;stroke-width:1;stroke-linecap:butt;stroke-linejoin:miter;stroke-miterlimit:10;stroke-dasharray:none"
   stroke-linecap="round"
   id="path2" />
</g></g></svg>
