<?xml version="1.0" encoding="UTF-8" standalone="no"?>
<!-- Created with Inkscape (http://www.inkscape.org/) -->

<svg
   width="512"
   height="512"
   viewBox="0 0 512 512"
   version="1.1"
   id="svg1"
   xml:space="preserve"
   inkscape:version="1.4.2 (f4327f4, 2025-05-13)"
   sodipodi:docname="thunderbird.svg"
   xmlns:inkscape="http://www.inkscape.org/namespaces/inkscape"
   xmlns:sodipodi="http://sodipodi.sourceforge.net/DTD/sodipodi-0.dtd"
   xmlns="http://www.w3.org/2000/svg"
   xmlns:svg="http://www.w3.org/2000/svg"><sodipodi:namedview
     id="namedview1"
     pagecolor="#ffffff"
     bordercolor="#999999"
     borderopacity="1"
     inkscape:showpageshadow="2"
     inkscape:pageopacity="0"
     inkscape:pagecheckerboard="0"
     inkscape:deskcolor="#d1d1d1"
     inkscape:document-units="px"
     showgrid="false"
     inkscape:zoom="1"
     inkscape:cx="160.5"
     inkscape:cy="287"
     inkscape:window-width="1920"
     inkscape:window-height="991"
     inkscape:window-x="-9"
     inkscape:window-y="-9"
     inkscape:window-maximized="1"
     inkscape:current-layer="layer1"><inkscape:grid
       id="grid1"
       units="mm"
       originx="0"
       originy="0"
       spacingx="1"
       spacingy="1"
       empcolor="#0099e5"
       empopacity="0.30196078"
       color="#0099e5"
       opacity="0.14901961"
       empspacing="5"
       enabled="true"
       visible="false" /></sodipodi:namedview><defs
     id="defs1"><inkscape:path-effect
       effect="fillet_chamfer"
       id="path-effect1"
       is_visible="true"
       lpeversion="1"
       nodesatellites_param="F,0,0,1,0,2.2572315,0,1 @ F,0,0,1,0,2.608162,0,1 @ F,0,0,1,0,2.5997618,0,1 @ F,0,0,1,0,3.0078049,0,1 @ F,0,0,1,0,2.2522004,0,1 @ F,0,0,1,0,2.8010871,0,1"
       radius="0"
       unit="px"
       method="auto"
       mode="F"
       chamfer_steps="1"
       flexible="false"
       use_knot_distance="true"
       apply_no_radius="true"
       apply_with_radius="true"
       only_selected="false"
       hide_knots="false" /><linearGradient
       id="a"
       x1="146.185"
       x2="639.58502"
       y1="155.649"
       y2="615.86902"
       gradientUnits="userSpaceOnUse"
       gradientTransform="matrix(0.50137213,0,0,0.50137213,68.131075,67.800169)"><stop
         stop-color="#1B91F3"
         id="stop13" /><stop
         offset="1"
         stop-color="#0B68CB"
         id="stop14" /></linearGradient><linearGradient
       id="d"
       x1="283.47501"
       x2="461.01501"
       y1="273.45801"
       y2="75.818298"
       gradientUnits="userSpaceOnUse"
       gradientTransform="matrix(0.50137213,0,0,0.50137213,68.131075,67.800169)"><stop
         stop-color="#0F5DB0"
         id="stop15" /><stop
         offset="1"
         stop-color="#0F5DB0"
         stop-opacity="0"
         id="stop16" /></linearGradient><linearGradient
       id="f"
       x1="594.625"
       x2="512.07501"
       y1="416.55899"
       y2="619.24902"
       gradientUnits="userSpaceOnUse"
       gradientTransform="matrix(0.50137213,0,0,0.50137213,68.131075,67.800169)"><stop
         stop-color="#E247C4"
         stop-opacity="0"
         id="stop17" /><stop
         offset="1"
         stop-color="#E247C4"
         stop-opacity="0.64"
         id="stop18" /></linearGradient><linearGradient
       id="g"
       x1="82.7155"
       x2="155.44501"
       y1="234.78999"
       y2="527.51001"
       gradientUnits="userSpaceOnUse"
       gradientTransform="matrix(0.50137213,0,0,0.50137213,68.131075,67.800169)"><stop
         offset="0.1"
         stop-color="#EF3ACC"
         id="stop19" /><stop
         offset="1"
         stop-color="#EF3ACC"
         stop-opacity="0"
         id="stop20" /></linearGradient><linearGradient
       id="h"
       x1="374.70499"
       x2="374.70499"
       y1="273.95001"
       y2="569.94897"
       gradientUnits="userSpaceOnUse"
       gradientTransform="matrix(0.50137213,0,0,0.50137213,68.131075,67.800169)"><stop
         stop-color="#fff"
         id="stop21" /><stop
         offset="0.91"
         stop-color="#BEE1FE"
         id="stop22" /><stop
         offset="1"
         stop-color="#96CEFD"
         id="stop23" /></linearGradient><linearGradient
       id="j"
       x1="380.245"
       x2="380.245"
       y1="441.44901"
       y2="565.44897"
       gradientUnits="userSpaceOnUse"
       gradientTransform="matrix(0.50137213,0,0,0.50137213,98.131075,435.80017)"><stop
         stop-color="#BCE0FD"
         id="stop24" /><stop
         offset="1"
         stop-color="#88CCFC"
         id="stop25" /></linearGradient><radialGradient
       id="b"
       cx="0"
       cy="0"
       r="1"
       gradientTransform="matrix(59.126775,136.09723,-130.37624,56.641318,140.96741,225.23102)"
       gradientUnits="userSpaceOnUse"><stop
         offset="0.53"
         stop-color="#0B4186"
         stop-opacity="0"
         id="stop26" /><stop
         offset="1"
         stop-color="#0B4186"
         stop-opacity="0.45"
         id="stop27" /></radialGradient><radialGradient
       id="c"
       cx="0"
       cy="0"
       r="1"
       gradientTransform="matrix(-19.528652,-24.998232,41.366472,-32.315542,260.51007,164.28873)"
       gradientUnits="userSpaceOnUse"><stop
         stop-color="#EF3ACC"
         stop-opacity="0"
         id="stop28" /><stop
         offset="1"
         stop-color="#EF3ACC"
         stop-opacity="0.64"
         id="stop29" /></radialGradient><radialGradient
       id="e"
       cx="0"
       cy="0"
       r="1"
       gradientTransform="matrix(100.52527,-208.52578,257.59064,124.17826,189.8161,344.13142)"
       gradientUnits="userSpaceOnUse"><stop
         offset="0.02"
         stop-color="#094188"
         id="stop30" /><stop
         offset="0.97"
         stop-color="#0B4186"
         stop-opacity="0"
         id="stop31" /></radialGradient><filter
       id="k"
       width="341.88"
       height="198.416"
       x="201.47501"
       y="276.15799"
       color-interpolation-filters="sRGB"
       filterUnits="userSpaceOnUse"><feFlood
         flood-opacity="0"
         result="BackgroundImageFix"
         id="feFlood31" /><feBlend
         in="SourceGraphic"
         in2="BackgroundImageFix"
         result="shape"
         id="feBlend31" /><feGaussianBlur
         result="effect1_foregroundBlur_106_1002"
         stdDeviation="16"
         id="feGaussianBlur31" /></filter></defs><g
     inkscape:label="Layer 1"
     inkscape:groupmode="layer"
     id="layer1"><circle
       style="fill:#2e3548;fill-opacity:1;stroke:#858585;stroke-width:8;stroke-dasharray:none;stroke-opacity:1"
       id="path1"
       inkscape:label="background"
       cx="256.00003"
       cy="256.00006"
       r="241.31339" /><path
       fill="url(#a)"
       d="m 225.96553,145.48728 h 0.0301 c 11.05024,-38.63067 59.20202,-57.487279 108.27131,-57.487279 33.9078,0 64.3466,10.734377 85.21371,27.776019 -12.45308,0.5872 -24.74873,3.03074 -36.47984,7.24979 16.86115,6.26715 31.34529,15.90854 42.07967,27.83618 -8.09867,-1.39382 -16.31064,-2.01502 -24.52663,-1.85508 20.19327,29.25156 30.98179,63.96756 30.92464,99.51234 0,96.91523 -78.56552,175.48025 -175.48075,175.48025 -95.42114,0 -175.480196,-79.89365 -175.480196,-175.48025 0,-15.09631 2.005488,-30.68397 5.90115,-45.30398 1.022799,-3.0684 2.446696,-6.01146 4.336869,-7.08941 2.366476,-1.34869 4.522376,2.67232 4.868323,3.9809 2.565872,9.6113 6.018424,18.9634 10.313224,27.93645 -0.37603,-20.03483 8.18239,-38.28477 19.95456,-54.06797 7.85149,-10.5238 15.13141,-20.27549 18.49061,-48.4175 0.22561,-1.89018 2.01551,-3.24889 3.82546,-2.65728 25.54993,8.36289 39.20731,50.90933 37.0865,86.4867 14.11363,2.02053 14.04845,-12.72483 14.04845,-12.72483 -4.51235,-13.86795 -1.50412,-39.64349 26.57272,-51.17505 z"
       id="path1-0"
       style="fill:url(#a);stroke-width:0.501372"
       inkscape:label="path1-0" /><path
       fill="url(#b)"
       d="m 425.73675,203.83246 c 4.26668,96.51413 -75.07546,179.72686 -171.82524,179.72686 -90.57288,0 -164.790591,-70.00659 -171.503964,-158.85976 -1.197728,8.32078 -1.827602,16.71274 -1.885159,25.11875 C 81.209267,344.88849 161.07243,424 256.00223,424 c 96.91523,0 175.48025,-78.56501 175.48025,-175.48025 0,-15.44226 -2.00048,-30.41824 -5.74573,-44.68729 z"
       opacity="0.9"
       id="path2"
       style="fill:url(#b);stroke-width:0.501372" /><path
       fill="url(#c)"
       d="m 251.72101,158.27728 c -1.89017,-3.34415 -10.61906,-8.29269 -14.4345,-9.15505 14.43952,-46.25153 88.00134,-60.45039 133.02456,-52.267997 18.73627,3.409327 42.07013,13.617267 49.16956,18.921787 -20.86711,-17.041642 -51.31092,-27.776019 -85.21371,-27.776019 -49.06929,0 -97.22107,18.856609 -108.27131,57.487279 h -0.0802 c -28.07684,11.53156 -31.08507,37.31713 -26.57272,51.18007 4.33185,-16.54027 24.94326,-36.8659 52.37834,-38.39007 z"
       style="mix-blend-mode:screen;fill:url(#c);stroke-width:0.501372"
       id="path3" /><path
       fill="url(#d)"
       d="m 302.71557,126.33436 c -39.41787,7.75623 -52.29812,10.29317 -65.48922,22.83249 14.81554,-39.22219 52.63404,-47.17395 97.69737,-29.29517 -10.72485,2.21105 -21.46123,4.36695 -32.20815,6.4677 z"
       id="path4"
       style="fill:url(#d);stroke-width:0.501372" /><path
       fill="url(#e)"
       d="m 90.043494,197.84607 c -10.769474,44.09067 -2.446696,95.91249 46.476746,139.40151 -14.56486,-15.92859 -32.34808,-74.73954 6.89387,-116.75453 2.64223,-2.83275 7.18967,-0.75206 7.33507,3.11854 3.23385,87.31897 73.69168,140.64992 154.92399,130.67763 -25.16888,-1.41387 -108.40668,-30.56866 -46.48723,-42.10022 32.36358,-6.03151 83.10745,-15.48237 83.10745,-61.01699 0,-73.812 -57.07119,-95.39106 -91.68091,-92.18228 -23.68482,2.19601 -44.76752,17.22715 -51.25527,37.66809 2.49182,8.05705 -7.44036,13.69749 -14.06349,12.74989 2.12582,-35.57235 -11.53156,-78.14386 -37.0865,-86.50674 -1.80494,-0.59162 -3.59985,0.7671 -3.82547,2.65727 -3.35919,28.14202 -10.63911,37.8937 -18.48559,48.4175 -11.77678,15.78821 -20.3352,34.03315 -19.95917,54.06798 -4.2947,-8.97306 -7.747252,-18.32516 -10.313224,-27.93646 -0.285783,-1.08296 -1.855077,-4.10624 -3.750264,-4.24662 -1.027813,-0.0752 -1.574308,0.92754 -1.830008,1.98543 z"
       id="path5"
       style="fill:url(#e);stroke-width:0.501372" /><path
       fill="url(#f)"
       d="m 237.44194,316.65572 c 47.6504,38.69089 143.47766,9.6815 143.47766,-84.39095 -38.68587,58.64048 -87.96073,99.09119 -143.47265,84.39095 z"
       style="mix-blend-mode:screen;fill:url(#f);stroke-width:0.501372"
       id="path6" /><path
       fill="url(#g)"
       d="m 143.41461,220.49305 c 0.43318,-0.48483 0.97918,-0.85534 1.58935,-1.07945 0.61017,-0.22361 1.26646,-0.29381 1.91022,-0.20406 -35.12588,42.84225 -6.79309,118.08316 12.65012,136.56875 1.08798,3.07843 -18.44598,-12.93038 -21.13835,-16.67563 -14.79047,-12.54935 -35.98824,-74.73453 4.98866,-118.60961 z"
       style="mix-blend-mode:screen;fill:url(#g);stroke-width:0.501372"
       id="path7" /><path
       fill="url(#h)"
       d="m 255.99772,320.20043 c 47.66043,0 86.30118,-31.52578 86.30118,-70.41722 0,-38.89144 -38.64075,-70.41771 -86.30118,-70.41771 -40.66128,0 -86.32124,26.45239 -86.30119,71.44552 0.0201,69.52528 73.47108,109.52475 136.08243,103.46817 -4.70287,-0.5465 -34.04317,-2.10576 -53.87244,-24.53715 -1.7899,-2.02053 -4.89339,-5.55019 -3.48453,-7.84146 1.40384,-2.29127 5.27443,-1.70467 7.57072,-1.70467 z"
       id="path8"
       style="fill:url(#h);stroke-width:0.501372" /><path
       d="m 306.53516,243.01367 -41.84375,40.04102 c -6.05157,4.30177 -12.49417,4.61161 -18.85157,0.71094 l -49.78906,-48.92579 c 12.25299,14.03438 31.55885,35.9968 39.91211,44.68946 12.70978,13.2262 23.51945,13.94227 37.62305,-0.19141 7.52853,-7.54459 21.53038,-23.28611 32.94922,-36.32422 z"
       style="clip-rule:evenodd;fill:#458fcd;fill-rule:evenodd;stroke-width:0.501372"
       id="path16" /><path
       d="m 306.53906,243.00977 c 9.96989,-11.38376 17.97071,-20.70704 17.97071,-20.70704 l -3.09766,0.24414 -58.43555,44.37305 c -4.4221,3.28399 -10.78974,3.31812 -15.25195,0.0742 l -59.5918,-44.50586 -2.94336,-0.13086 c 0,0 4.47086,5.162 10.85352,12.47266 l 49.79687,48.93554 c 6.3574,3.90067 12.8,3.59084 18.85157,-0.71093 z"
       style="opacity:0.6;fill:#ffffff;stroke-width:0.501372"
       id="path19" /><path
       d="m 326.30469,208.94141 c -21.7746,19.44822 -38.52506,34.23944 -61.42774,53.79296 -8.86426,7.5607 -11.6723,7.7111 -20.70703,0 -20.01978,-17.08677 -34.22294,-30.38845 -51.79101,-46.85351 l -7.01954,-6.56836 c -2.36296,2.73298 -4.50924,5.6455 -6.41796,8.71289 l 17.10937,16.81445 c 12.25299,14.03438 31.55885,35.9968 39.91211,44.68946 12.70978,13.2262 23.51945,13.94227 37.62305,-0.19141 7.52853,-7.54459 21.53038,-23.28611 32.94922,-36.32422 l -41.84375,40.04102 c -6.05157,4.30177 -12.49417,4.6116 -18.85157,0.71093 l -49.79687,-48.93554 c -6.38266,-7.31066 -10.85352,-12.47266 -10.85352,-12.47266 l 2.94336,0.13086 59.5918,44.50586 c 4.46221,3.2439 10.82985,3.20977 15.25195,-0.0742 l 58.43555,-44.37305 3.09766,-0.24414 c 0,0 -8.00082,9.32328 -17.97071,20.70704 l 26.35352,-25.21875 c -1.95784,-3.11949 -4.16079,-6.07907 -6.58789,-8.84961 z"
       style="opacity:0.6;fill:#ffffff;stroke-width:0.501372"
       id="path18" /><path
       d="m 326.30469,208.94141 c -21.7746,19.44822 -38.52506,34.23945 -61.42774,53.79297 -8.86426,7.56069 -11.6723,7.7111 -20.70703,0 -20.01978,-17.08677 -34.22294,-30.38846 -51.79101,-46.85352 l -7.01954,-6.56836 c -2.36296,2.73298 -4.50924,5.6455 -6.41796,8.71289 l 17.10156,16.80469 c -6.38266,-7.31066 -10.85352,-12.47266 -10.85352,-12.47266 l 2.94336,0.13086 59.5918,44.50586 c 4.46221,3.24388 10.82985,3.20977 15.25195,-0.0742 l 58.43555,-44.37304 3.09765,-0.24415 c 0,0 -8.00081,9.32327 -17.9707,20.70703 l 26.35352,-25.21874 c -1.95784,-3.11949 -4.16079,-6.07907 -6.58789,-8.84961 z"
       style="opacity:0.6;fill:#ffffff;stroke-width:0.501372"
       id="path14" /><path
       fill="#ffffff"
       d="m 268.10586,144.13809 c 9.23527,-2.90796 8.42305,-12.04798 8.42305,-12.04798 0,0 -4.61764,-5.43988 -13.76768,-2.42664 -8.56344,2.82273 -9.89207,8.92443 -9.89207,8.92443 0,0 4.6778,8.87428 15.2367,5.55019 z"
       id="path13"
       style="stroke-width:0.501372" /></g></svg>
