<?xml version="1.0" encoding="UTF-8" standalone="no"?>
<!-- Created with Inkscape (http://www.inkscape.org/) -->

<svg
   width="512"
   height="512"
   viewBox="0 0 512 512"
   version="1.1"
   id="svg1"
   xml:space="preserve"
   inkscape:version="1.4.2 (f4327f4, 2025-05-13)"
   sodipodi:docname="weblate.svg"
   xmlns:inkscape="http://www.inkscape.org/namespaces/inkscape"
   xmlns:sodipodi="http://sodipodi.sourceforge.net/DTD/sodipodi-0.dtd"
   xmlns="http://www.w3.org/2000/svg"
   xmlns:svg="http://www.w3.org/2000/svg"><sodipodi:namedview
     id="namedview1"
     pagecolor="#ffffff"
     bordercolor="#999999"
     borderopacity="1"
     inkscape:showpageshadow="2"
     inkscape:pageopacity="0"
     inkscape:pagecheckerboard="0"
     inkscape:deskcolor="#d1d1d1"
     inkscape:document-units="px"
     showgrid="false"
     inkscape:zoom="1"
     inkscape:cx="160.5"
     inkscape:cy="323"
     inkscape:window-width="1920"
     inkscape:window-height="991"
     inkscape:window-x="-9"
     inkscape:window-y="-9"
     inkscape:window-maximized="1"
     inkscape:current-layer="layer1"><inkscape:grid
       id="grid1"
       units="mm"
       originx="0"
       originy="0"
       spacingx="1"
       spacingy="1"
       empcolor="#0099e5"
       empopacity="0.30196078"
       color="#0099e5"
       opacity="0.14901961"
       empspacing="5"
       enabled="true"
       visible="false" /></sodipodi:namedview><defs
     id="defs1"><inkscape:path-effect
       effect="fillet_chamfer"
       id="path-effect1"
       is_visible="true"
       lpeversion="1"
       nodesatellites_param="F,0,0,1,0,2.2572315,0,1 @ F,0,0,1,0,2.608162,0,1 @ F,0,0,1,0,2.5997618,0,1 @ F,0,0,1,0,3.0078049,0,1 @ F,0,0,1,0,2.2522004,0,1 @ F,0,0,1,0,2.8010871,0,1"
       radius="0"
       unit="px"
       method="auto"
       mode="F"
       chamfer_steps="1"
       flexible="false"
       use_knot_distance="true"
       apply_no_radius="true"
       apply_with_radius="true"
       only_selected="false"
       hide_knots="false" /></defs><g
     inkscape:label="Layer 1"
     inkscape:groupmode="layer"
     id="layer1"><circle
       style="fill:#13634e;fill-opacity:1;stroke:#858585;stroke-width:8;stroke-dasharray:none;stroke-opacity:1"
       id="path1"
       inkscape:label="background"
       cx="256.00003"
       cy="256.00006"
       r="241.31339" /><g
       transform="matrix(2.6243401,0,0,2.6243401,219.22638,287.49618)"
       id="g7"><linearGradient
         id="weblate-original-a"
         gradientUnits="userSpaceOnUse"
         x1="-100.86"
         y1="63.797001"
         x2="-37.245998"
         y2="63.797001"
         gradientTransform="matrix(0.9831,0,0,-1.0172,49.154,52.895)"><stop
           offset="0"
           stop-color="#00d2e6"
           id="stop1" /><stop
           offset="1"
           stop-color="#2eccaa"
           id="stop2" /></linearGradient><path
         d="m 32,12.5 c -1.9,0 -3.7,-0.4 -5.5,-1.2 -4,-1.7 -7.4,-5 -10.3,-9.4 0.8,-1.4 1.5,-2.9 2.2,-4.4 2.8,-6.6 4.2,-13.9 4.3,-21.1 v -0.8 c 0,-2.8 -0.4,-5.7 -1.4,-8.3 -1.1,-3.1 -2.9,-6.1 -5.7,-7.3 -0.5,-0.2 -1.1,-0.3 -1.6,-0.3 -3.6,-6.7 -3.7,-13 0,-19.1 h 0.2 c 4.3,0 8.6,1.4 12.3,3.7 10,6.4 15,18.7 15.1,30.9 v 0.4 h 0.1 C 41.6,-11.5 38.5,1.6 32,12.5 Z M 9.8,32.7 C 0.5,36.5 -10.4,36.3 -19.6,32 -30.2,27.1 -38.4,17.4 -43.4,6.5 -52,-12.3 -52.2,-34.7 -44,-53.7 c 6.1,2.4 11.5,-1.4 11.5,-1.4 0,0 0,6 5.8,9 -5.9,13.9 -5.8,30.5 0.2,44.1 2.9,6.5 7.3,12.6 13.3,16.1 2.2,1.2 4.6,2 7,2.3 4.3,6.6 9.8,12.3 16,16.3 z"
         fill="url(#weblate-original-a)"
         id="path2"
         style="fill:url(#weblate-original-a)" /><linearGradient
         id="weblate-original-b"
         gradientUnits="userSpaceOnUse"
         x1="-59.459999"
         y1="27.872999"
         x2="-26.638"
         y2="43.338001"
         gradientTransform="matrix(1.1631,0,0,-0.8598,58.153,44.71)"><stop
           offset="0"
           stop-opacity="0"
           id="stop3" /><stop
           offset=".514"
           id="stop4" /><stop
           offset="1"
           stop-opacity="0"
           id="stop5" /></linearGradient><path
         d="m 32,12.5 c -1.9,0 -3.7,-0.4 -5.5,-1.2 -4,-1.7 -7.4,-5 -10.3,-9.4 0.8,-1.4 1.5,-2.9 2.2,-4.4 0.9,-2 1.6,-4 2.2,-6.1 1.4,-4.8 19.6,1.3 16.9,9.3 C 36,4.8 34.2,8.8 32,12.5 Z M 9.8,32.7 c -9.3,3.8 -20.2,3.6 -29.4,-0.7 -10.6,-4.9 0.3,-21.5 6.4,-18.1 2.2,1.2 4.5,2 7,2.3 4.3,6.8 9.8,12.5 16,16.5 z"
         opacity="0.3"
         fill-rule="evenodd"
         clip-rule="evenodd"
         fill="url(#weblate-original-b)"
         id="path5"
         style="fill:url(#weblate-original-b)" /><linearGradient
         id="weblate-original-c"
         gradientUnits="userSpaceOnUse"
         x1="29.341999"
         y1="63.797001"
         x2="-34.164001"
         y2="63.797001"
         gradientTransform="matrix(0.9831,0,0,-1.0172,49.154,52.895)"><stop
           offset="0"
           stop-color="#1fa385"
           id="stop6" /><stop
           offset="1"
           stop-color="#2eccaa"
           id="stop7" /></linearGradient><path
         d="m -13.6,-24.3 v -0.4 c 0.1,-12.2 5.1,-24.6 15.1,-30.9 3.7,-2.3 8,-3.7 12.3,-3.7 H 14 v 19.1 c -0.5,0 -1.1,0.1 -1.6,0.3 -2.8,1.2 -4.6,4.3 -5.7,7.3 -1,2.7 -1.4,5.5 -1.4,8.3 v 0.8 c 0.1,7.2 1.4,14.4 4.3,21 3.1,7.5 8.2,14.3 15.4,17.4 5.4,2.4 11.4,1.8 16.3,-1 6.1,-3.4 10.5,-9.5 13.3,-16.1 6,-13.6 6.1,-30.1 0.2,-44.1 5.8,-3 5.8,-9 5.8,-9 0,0 5.4,3.9 11.5,1.4 8.1,19 7.9,41.5 -0.6,60.2 -5,11 -13.1,20.6 -23.8,25.5 -9.5,4.4 -20.6,4.5 -30.1,0.4 C 9,28.7 2,22 -3,14.2 -10.2,2.9 -13.6,-10.8 -13.6,-24.3 Z"
         fill="url(#weblate-original-c)"
         id="path7"
         style="fill:url(#weblate-original-c)" /></g></g></svg>
