<?xml version="1.0" encoding="UTF-8" standalone="no"?>
<!-- Created with Inkscape (http://www.inkscape.org/) -->

<svg
   width="512"
   height="512"
   viewBox="0 0 512 512"
   version="1.1"
   id="svg1"
   xml:space="preserve"
   inkscape:version="1.4.2 (f4327f4, 2025-05-13)"
   sodipodi:docname="whisparr.svg"
   xmlns:inkscape="http://www.inkscape.org/namespaces/inkscape"
   xmlns:sodipodi="http://sodipodi.sourceforge.net/DTD/sodipodi-0.dtd"
   xmlns="http://www.w3.org/2000/svg"
   xmlns:svg="http://www.w3.org/2000/svg"><sodipodi:namedview
     id="namedview1"
     pagecolor="#ffffff"
     bordercolor="#999999"
     borderopacity="1"
     inkscape:showpageshadow="2"
     inkscape:pageopacity="0"
     inkscape:pagecheckerboard="0"
     inkscape:deskcolor="#d1d1d1"
     inkscape:document-units="px"
     showgrid="false"
     inkscape:zoom="1"
     inkscape:cx="160.5"
     inkscape:cy="323"
     inkscape:window-width="1920"
     inkscape:window-height="991"
     inkscape:window-x="-9"
     inkscape:window-y="-9"
     inkscape:window-maximized="1"
     inkscape:current-layer="layer1"><inkscape:grid
       id="grid1"
       units="mm"
       originx="0"
       originy="0"
       spacingx="1"
       spacingy="1"
       empcolor="#0099e5"
       empopacity="0.30196078"
       color="#0099e5"
       opacity="0.14901961"
       empspacing="5"
       enabled="true"
       visible="false" /></sodipodi:namedview><defs
     id="defs1"><inkscape:path-effect
       effect="fillet_chamfer"
       id="path-effect1"
       is_visible="true"
       lpeversion="1"
       nodesatellites_param="F,0,0,1,0,2.2572315,0,1 @ F,0,0,1,0,2.608162,0,1 @ F,0,0,1,0,2.5997618,0,1 @ F,0,0,1,0,3.0078049,0,1 @ F,0,0,1,0,2.2522004,0,1 @ F,0,0,1,0,2.8010871,0,1"
       radius="0"
       unit="px"
       method="auto"
       mode="F"
       chamfer_steps="1"
       flexible="false"
       use_knot_distance="true"
       apply_no_radius="true"
       apply_with_radius="true"
       only_selected="false"
       hide_knots="false" /></defs><g
     inkscape:label="Layer 1"
     inkscape:groupmode="layer"
     id="layer1"><circle
       style="fill:#2e3548;fill-opacity:1;stroke:#858585;stroke-width:8;stroke-dasharray:none;stroke-opacity:1"
       id="path1"
       inkscape:label="background"
       cx="256.00003"
       cy="256.00006"
       r="241.31339" /><g
       id="g1"
       transform="matrix(0.36073826,0,0,0.36073826,39.557044,39.557044)"><circle
         cx="600"
         cy="600"
         r="566"
         fill="#ff69b4"
         stroke="#333333"
         stroke-width="60"
         id="circle1" /><path
         fill="#333333"
         d="m 142.192,966.227 q -15.382,-10e-4 -10.144,-22.122 5.008,-21.159 28.128,-53.858 L 388.366,622.886 Q 493.552,499.784 548.963,420.92 q 55.402,-78.862 63.14,-111.562 3.643,-15.389 -4.794,-23.083 -8.428,-7.695 -21.418,-10.581 -12.99,-2.886 -24.953,-2.887 -72.634,-0.004 -226.195,100.012 -43.339,27.89 -82.3,62.511 -38.953,34.622 -74.776,74.053 -69.93,78.862 -82.675,132.72 -9.793,41.356 22.34,50.014 11.913,3.848 28.148,3.849 30.763,0.002 65.62,-17.308 34.857,-17.31 70.285,-44.238 27.225,-21.158 30.643,-21.157 3.418,0 0.969,6.732 -9.905,20.197 -33.884,38.47 -23.98,18.272 -54.848,33.173 -30.876,14.91 -60.58,23.08 -29.705,8.177 -51.075,8.176 -34.181,-0.002 -55.142,-19.724 -20.977,-19.713 -11.866,-58.184 13.88,-58.668 94.805,-144.261 77.678,-82.709 178.384,-147.142 41.408,-26.928 94.216,-51.455 52.8,-24.517 104.406,-40.388 51.607,-15.862 89.206,-15.86 67.506,0.004 55.673,50.016 -14.34,60.591 -130.567,208.698 -81.379,101.946 -208.605,242.357 -105.3,116.37 -106.155,116.37 2.555,0 105.478,-99.058 63.27,-61.55 117.92,-110.12 54.64,-48.563 100.035,-85.108 22.27,-18.273 54.39,-45.686 l 74.95,-63.95 q 37.202,-30.774 71.737,-55.778 34.543,-25.005 58.47,-25.003 24.78,0.001 29.288,13.466 -104.56,109.637 -210.475,268.324 -75.565,113.486 -89.453,172.154 -8.19,34.623 4.402,50.012 12.593,15.39 39.083,15.391 29.054,0.002 65.428,-18.27 36.365,-18.272 74.808,-47.123 38.45,-28.85 73.302,-60.588 124.674,-111.559 213.503,-241.394 69.424,-101.944 83.757,-162.536 1.365,-5.77 2.076,-10.579 0.711,-4.809 0.77,-8.656 -17.953,-0.001 -33.453,-21.161 -10.088,-11.542 -7.127,-24.045 2.73,-11.541 13.1,-19.235 10.363,-7.693 21.472,-7.693 16.235,10e-4 20.061,16.352 1.593,7.694 9.117,19.236 5.018,7.694 3.251,11.541 3.08,8.656 15.043,8.657 11.963,10e-4 25.379,-11.54 13.407,-11.54 26.225,-11.54 6.836,0 5.471,5.771 -2.5,10.58 -21.013,20.197 -10.14,6.731 -22.556,8.654 -7.067,0.962 -14.014,1.438 -6.955,0.485 -13.33,-1.44 1.15,38.472 -3.175,56.745 -18.206,76.942 -112.062,199.082 -47.034,61.551 -101.882,116.37 -54.839,54.818 -118.345,102.903 -126.61,98.094 -206.935,98.09 -88.015,-0.005 -66.166,-92.335 10.238,-43.28 39.56,-98.584 29.323,-55.297 64.517,-110.116 l 97.254,-150.994 q -45.336,32.698 -73.72,53.37 -28.4,20.681 -47.625,35.107 -19.225,14.426 -36.845,29.328 -17.635,14.91 -42.289,36.068 -27.053,24.043 -73.53,68.759 -46.469,44.724 -110.028,111.084 L 191.35,935.453 q -11.276,11.54 -24.662,21.157 -13.387,9.617 -24.495,9.617"
         id="path1-8" /></g></g></svg>
