<?xml version="1.0" encoding="UTF-8" standalone="no"?>
<!-- Created with Inkscape (http://www.inkscape.org/) -->

<svg
   width="512"
   height="512"
   viewBox="0 0 512 512"
   version="1.1"
   id="svg1"
   xml:space="preserve"
   inkscape:version="1.4.2 (f4327f4, 2025-05-13)"
   sodipodi:docname="windi-css.svg"
   xmlns:inkscape="http://www.inkscape.org/namespaces/inkscape"
   xmlns:sodipodi="http://sodipodi.sourceforge.net/DTD/sodipodi-0.dtd"
   xmlns="http://www.w3.org/2000/svg"
   xmlns:svg="http://www.w3.org/2000/svg"><sodipodi:namedview
     id="namedview1"
     pagecolor="#ffffff"
     bordercolor="#999999"
     borderopacity="1"
     inkscape:showpageshadow="2"
     inkscape:pageopacity="0"
     inkscape:pagecheckerboard="0"
     inkscape:deskcolor="#d1d1d1"
     inkscape:document-units="px"
     showgrid="false"
     inkscape:zoom="1"
     inkscape:cx="160.5"
     inkscape:cy="323"
     inkscape:window-width="1920"
     inkscape:window-height="991"
     inkscape:window-x="-9"
     inkscape:window-y="-9"
     inkscape:window-maximized="1"
     inkscape:current-layer="layer1"><inkscape:grid
       id="grid1"
       units="mm"
       originx="0"
       originy="0"
       spacingx="1"
       spacingy="1"
       empcolor="#0099e5"
       empopacity="0.30196078"
       color="#0099e5"
       opacity="0.14901961"
       empspacing="5"
       enabled="true"
       visible="false" /></sodipodi:namedview><defs
     id="defs1"><inkscape:path-effect
       effect="fillet_chamfer"
       id="path-effect1"
       is_visible="true"
       lpeversion="1"
       nodesatellites_param="F,0,0,1,0,2.2572315,0,1 @ F,0,0,1,0,2.608162,0,1 @ F,0,0,1,0,2.5997618,0,1 @ F,0,0,1,0,3.0078049,0,1 @ F,0,0,1,0,2.2522004,0,1 @ F,0,0,1,0,2.8010871,0,1"
       radius="0"
       unit="px"
       method="auto"
       mode="F"
       chamfer_steps="1"
       flexible="false"
       use_knot_distance="true"
       apply_no_radius="true"
       apply_with_radius="true"
       only_selected="false"
       hide_knots="false" /><linearGradient
       x1="19.037293"
       y1="41.400912"
       x2="157.05767"
       y2="200.64466"
       id="windiLinearGradient-1"
       gradientTransform="scale(1.1693296,0.85519087)"
       gradientUnits="userSpaceOnUse"><stop
         stop-color="#54C8F1"
         offset="7.8225%"
         id="stop1" /><stop
         stop-color="#41A2EF"
         offset="57.2917%"
         id="stop2" /><stop
         stop-color="#3386EE"
         offset="100%"
         id="stop3" /></linearGradient><linearGradient
       x1="18.469778"
       y1="158.93272"
       x2="152.37566"
       y2="304.3553"
       id="windiLinearGradient-2"
       gradientTransform="scale(1.2052592,0.82969703)"
       gradientUnits="userSpaceOnUse"><stop
         stop-color="#54C8F1"
         offset="7.8225%"
         id="stop4" /><stop
         stop-color="#41A2EF"
         offset="57.2917%"
         id="stop5" /><stop
         stop-color="#3386EE"
         offset="100%"
         id="stop6" /></linearGradient><linearGradient
       x1="14.604991"
       y1="128.65725"
       x2="120.49116"
       y2="200.56086"
       id="windiLinearGradient-3"
       gradientTransform="scale(1.5241961,0.65608357)"
       gradientUnits="userSpaceOnUse"><stop
         stop-color="#54C8F1"
         offset="7.8225%"
         id="stop7" /><stop
         stop-color="#41A2EF"
         offset="57.2917%"
         id="stop8" /><stop
         stop-color="#3386EE"
         offset="100%"
         id="stop9" /></linearGradient><linearGradient
       x1="19.524029"
       y1="106.50701"
       x2="161.07323"
       y2="278.28013"
       id="windiLinearGradient-4"
       gradientTransform="scale(1.1401781,0.87705599)"
       gradientUnits="userSpaceOnUse"><stop
         stop-color="#54C8F1"
         offset="7.8225%"
         id="stop10" /><stop
         stop-color="#41A2EF"
         offset="57.2917%"
         id="stop11" /><stop
         stop-color="#3386EE"
         offset="100%"
         id="stop12" /></linearGradient></defs><g
     inkscape:label="Layer 1"
     inkscape:groupmode="layer"
     id="layer1"><circle
       style="fill:#2e3548;fill-opacity:1;stroke:#858585;stroke-width:8;stroke-dasharray:none;stroke-opacity:1"
       id="path1"
       inkscape:label="background"
       cx="256.00003"
       cy="256.00006"
       r="241.31339" /><g
       id="g14"
       transform="matrix(1.2075,0,0,1.2075,101.44,88)"><path
         d="M 133.78449,48.921878 C 133.78449,21.944765 111.83944,0 84.862609,0 c -28.43047,0 -45.4272,21.315896 -45.4272,41.9328 h 27.9552 c 0,-5.800626 5.423304,-13.9776 17.472,-13.9776 11.559513,0 20.966401,9.407165 20.966401,20.966678 0,11.559513 -8.437706,20.9664 -29.71548,20.9664 H 0 v 27.9552 h 76.11353 c 35.91151,0 57.67096,-21.944765 57.67096,-48.9216 z m 0,0 C 133.78449,21.944765 111.83944,0 84.862609,0 c -28.43047,0 -45.4272,21.315896 -45.4272,41.9328 h 27.9552 c 0,-5.800626 5.423304,-13.9776 17.472,-13.9776 11.559513,0 20.966401,9.407165 20.966401,20.966678 0,11.559513 -8.437706,20.9664 -29.71548,20.9664 H 0 v 27.9552 h 76.11353 c 35.91151,0 57.67096,-21.944765 57.67096,-48.9216 z"
         fill="url(#windiLinearGradient-1)"
         id="path12"
         style="fill:url(#windiLinearGradient-1)" /><path
         d="m 195.80299,229.33899 c 0,26.97823 -21.94504,48.92188 -48.92188,48.92188 -28.43047,0 -45.42747,-21.31478 -45.42747,-41.9328 h 27.95547 c 0,5.80063 5.42331,13.97871 17.472,13.97871 11.55952,0 20.9664,-9.408 20.9664,-20.96779 0,-11.55951 -10.63012,-20.9664 -29.71548,-20.9664 H 53.670678 v -27.9552 h 84.461352 c 35.91152,0 57.67096,21.94477 57.67096,48.9216 z m 0,0 c 0,26.97823 -21.94504,48.92188 -48.92188,48.92188 -28.43047,0 -45.42747,-21.31478 -45.42747,-41.9328 h 27.95547 c 0,5.80063 5.42331,13.97871 17.472,13.97871 11.55952,0 20.9664,-9.408 20.9664,-20.96779 0,-11.55951 -10.63012,-20.9664 -29.71548,-20.9664 H 53.670678 v -27.9552 h 84.461352 c 35.91152,0 57.67096,21.94477 57.67096,48.9216 z"
         fill="url(#windiLinearGradient-2)"
         id="path13"
         style="fill:url(#windiLinearGradient-2)" /><path
         d="m 203.13043,43.130435 c -30.83464,0 -52.58573,23.448765 -52.58573,54.283408 h 24.75965 c 0,-15.326887 11.13043,-26.457321 27.82608,-26.457321 16.69566,0 25.04348,11.130434 25.04348,26.457321 0,15.326887 -10.84215,27.955197 -40.34782,27.955197 H 0 v 27.95548 h 192 c 43.6953,0 64,-28.08459 64,-55.910677 C 256,66.5792 235.13043,43.130435 203.13043,43.130435 Z"
         fill="url(#windiLinearGradient-3)"
         id="path14"
         style="fill:url(#windiLinearGradient-3)" /><polygon
         fill="url(#windiLinearGradient-4)"
         points="0,180.41739 0,208.60744 36.647235,208.60744 36.647235,180.41739 "
         id="polygon14"
         style="fill:url(#windiLinearGradient-4)" /></g></g></svg>
