<?xml version="1.0" encoding="UTF-8" standalone="no"?>
<!-- Created with Inkscape (http://www.inkscape.org/) -->

<svg
   width="512"
   height="512"
   viewBox="0 0 512 512"
   version="1.1"
   id="svg1"
   xml:space="preserve"
   inkscape:version="1.4.2 (f4327f4, 2025-05-13)"
   sodipodi:docname="xml.svg"
   xmlns:inkscape="http://www.inkscape.org/namespaces/inkscape"
   xmlns:sodipodi="http://sodipodi.sourceforge.net/DTD/sodipodi-0.dtd"
   xmlns="http://www.w3.org/2000/svg"
   xmlns:svg="http://www.w3.org/2000/svg"><sodipodi:namedview
     id="namedview1"
     pagecolor="#ffffff"
     bordercolor="#999999"
     borderopacity="1"
     inkscape:showpageshadow="2"
     inkscape:pageopacity="0"
     inkscape:pagecheckerboard="0"
     inkscape:deskcolor="#d1d1d1"
     inkscape:document-units="px"
     showgrid="false"
     inkscape:zoom="1"
     inkscape:cx="160.5"
     inkscape:cy="323"
     inkscape:window-width="1920"
     inkscape:window-height="991"
     inkscape:window-x="-9"
     inkscape:window-y="-9"
     inkscape:window-maximized="1"
     inkscape:current-layer="layer1"><inkscape:grid
       id="grid1"
       units="mm"
       originx="0"
       originy="0"
       spacingx="1"
       spacingy="1"
       empcolor="#0099e5"
       empopacity="0.30196078"
       color="#0099e5"
       opacity="0.14901961"
       empspacing="5"
       enabled="true"
       visible="false" /></sodipodi:namedview><defs
     id="defs1"><inkscape:path-effect
       effect="fillet_chamfer"
       id="path-effect1"
       is_visible="true"
       lpeversion="1"
       nodesatellites_param="F,0,0,1,0,2.2572315,0,1 @ F,0,0,1,0,2.608162,0,1 @ F,0,0,1,0,2.5997618,0,1 @ F,0,0,1,0,3.0078049,0,1 @ F,0,0,1,0,2.2522004,0,1 @ F,0,0,1,0,2.8010871,0,1"
       radius="0"
       unit="px"
       method="auto"
       mode="F"
       chamfer_steps="1"
       flexible="false"
       use_knot_distance="true"
       apply_no_radius="true"
       apply_with_radius="true"
       only_selected="false"
       hide_knots="false" /></defs><g
     inkscape:label="Layer 1"
     inkscape:groupmode="layer"
     id="layer1"><circle
       style="fill:#2e3548;fill-opacity:1;stroke:#858585;stroke-width:8;stroke-dasharray:none;stroke-opacity:1"
       id="path1"
       inkscape:label="background"
       cx="256.00003"
       cy="256.00006"
       r="241.31339" /><g
       id="g1"
       transform="matrix(0.65625,0,0,0.65625,87.999672,88)"><path
         fill="#ffb11f"
         fill-rule="evenodd"
         d="m 168.585,0 h 173.368 l 153.091,153.091 v 293.98 c 0,35.698 -29.231,64.929 -64.929,64.929 h -261.53 c -35.698,0 -64.929,-29.231 -64.929,-64.929 V 64.929 C 103.655,29.231 132.887,0 168.585,0 Z"
         clip-rule="evenodd"
         id="path1-0" /><path
         fill="#cc8e18"
         fill-rule="evenodd"
         d="M 341.953,0 495.044,153.091 H 358.456 c -9.07,0 -16.503,-7.432 -16.503,-16.532 V 0 Z M 31.207,218.02 h 352.589 c 7.842,0 14.25,6.408 14.25,14.25 v 129.36 c 0,7.842 -6.408,14.25 -14.25,14.25 H 31.207 c -7.842,0 -14.25,-6.408 -14.25,-14.25 V 232.27 c -0.001,-7.842 6.408,-14.25 14.25,-14.25 z"
         clip-rule="evenodd"
         id="path2" /><path
         fill="#ffffff"
         d="m 244.952,252.123 c 0.014,0.219 0.02,0.438 0.017,0.657 v 88.427 c 0,4.565 -3.701,8.266 -8.266,8.266 -4.565,0 -8.266,-3.701 -8.266,-8.266 v -62.298 l -15.917,22.763 c -1.546,2.212 -4.075,3.528 -6.772,3.529 -10e-4,0 -10e-4,0 -0.002,0 -2.698,0 -5.225,-1.315 -6.772,-3.526 l -15.949,-22.787 v 62.319 c 0,4.565 -3.701,8.266 -8.266,8.266 -4.565,0 -8.266,-3.701 -8.266,-8.266 V 252.78 c -0.003,-0.22 0.003,-0.44 0.017,-0.658 0.077,-1.174 0.397,-2.281 0.913,-3.271 0.517,-0.998 1.245,-1.902 2.171,-2.641 0.789,-0.632 1.697,-1.123 2.684,-1.433 0.988,-0.31 2.013,-0.428 3.022,-0.361 1.172,0.077 2.278,0.396 3.266,0.91 0.995,0.515 1.897,1.24 2.636,2.161 0.138,0.172 0.27,0.35 0.394,0.533 l 24.146,34.496 24.12,-34.494 c 0.123,-0.18 0.252,-0.355 0.388,-0.524 0.73,-0.914 1.621,-1.635 2.604,-2.151 1,-0.526 2.12,-0.855 3.308,-0.931 1.033,-0.068 2.076,0.054 3.083,0.381 0.967,0.313 1.856,0.797 2.63,1.419 0.92,0.737 1.645,1.637 2.16,2.63 0.518,0.99 0.84,2.1 0.917,3.277 z m 82.341,80.818 h -44.958 v -80.277 c 0,-4.565 -3.701,-8.266 -8.266,-8.266 -4.565,0 -8.266,3.701 -8.266,8.266 v 88.543 c 0,4.565 3.701,8.266 8.266,8.266 h 53.224 c 4.565,0 8.266,-3.701 8.266,-8.266 0,-4.565 -3.7,-8.266 -8.266,-8.266 z m -182.1,-87.362 c -3.914,-2.353 -8.992,-1.087 -11.344,2.826 l -19.528,32.486 -19.528,-32.486 c -2.352,-3.912 -7.432,-5.179 -11.344,-2.826 -3.912,2.352 -5.177,7.43 -2.826,11.344 l 24.052,40.013 -24.052,40.013 c -2.352,3.913 -1.087,8.992 2.826,11.344 1.334,0.801 2.801,1.182 4.251,1.182 2.805,0 5.542,-1.428 7.093,-4.008 l 19.528,-32.486 19.528,32.486 c 1.55,2.58 4.286,4.008 7.093,4.008 1.45,0 2.918,-0.381 4.251,-1.182 3.912,-2.352 5.177,-7.43 2.826,-11.344 l -24.052,-40.013 24.052,-40.013 c 2.351,-3.913 1.086,-8.992 -2.826,-11.344 z"
         id="path3" /></g></g></svg>
