<?xml version="1.0" encoding="UTF-8" standalone="no"?>
<!-- Created with Inkscape (http://www.inkscape.org/) -->

<svg
   width="512"
   height="512"
   viewBox="0 0 512 512"
   version="1.1"
   id="svg1"
   xml:space="preserve"
   inkscape:version="1.4.2 (f4327f4, 2025-05-13)"
   sodipodi:docname="xubuntu.svg"
   xmlns:inkscape="http://www.inkscape.org/namespaces/inkscape"
   xmlns:sodipodi="http://sodipodi.sourceforge.net/DTD/sodipodi-0.dtd"
   xmlns="http://www.w3.org/2000/svg"
   xmlns:svg="http://www.w3.org/2000/svg"><sodipodi:namedview
     id="namedview1"
     pagecolor="#ffffff"
     bordercolor="#999999"
     borderopacity="1"
     inkscape:showpageshadow="2"
     inkscape:pageopacity="0"
     inkscape:pagecheckerboard="0"
     inkscape:deskcolor="#d1d1d1"
     inkscape:document-units="px"
     showgrid="false"
     inkscape:zoom="1"
     inkscape:cx="160.5"
     inkscape:cy="323"
     inkscape:window-width="1920"
     inkscape:window-height="991"
     inkscape:window-x="-9"
     inkscape:window-y="-9"
     inkscape:window-maximized="1"
     inkscape:current-layer="layer1"><inkscape:grid
       id="grid1"
       units="mm"
       originx="0"
       originy="0"
       spacingx="1"
       spacingy="1"
       empcolor="#0099e5"
       empopacity="0.30196078"
       color="#0099e5"
       opacity="0.14901961"
       empspacing="5"
       enabled="true"
       visible="false" /></sodipodi:namedview><defs
     id="defs1"><inkscape:path-effect
       effect="fillet_chamfer"
       id="path-effect1"
       is_visible="true"
       lpeversion="1"
       nodesatellites_param="F,0,0,1,0,2.2572315,0,1 @ F,0,0,1,0,2.608162,0,1 @ F,0,0,1,0,2.5997618,0,1 @ F,0,0,1,0,3.0078049,0,1 @ F,0,0,1,0,2.2522004,0,1 @ F,0,0,1,0,2.8010871,0,1"
       radius="0"
       unit="px"
       method="auto"
       mode="F"
       chamfer_steps="1"
       flexible="false"
       use_knot_distance="true"
       apply_no_radius="true"
       apply_with_radius="true"
       only_selected="false"
       hide_knots="false" /></defs><g
     inkscape:label="Layer 1"
     inkscape:groupmode="layer"
     id="layer1"><circle
       style="fill:#2e3548;fill-opacity:1;stroke:#858585;stroke-width:8;stroke-dasharray:none;stroke-opacity:1"
       id="path1"
       inkscape:label="background"
       cx="256.00003"
       cy="256.00006"
       r="241.31339" /><g
       id="g1037"
       transform="matrix(0.79166667,0,0,0.79166667,18.499999,18.499999)"><circle
         r="300"
         cy="300"
         cx="300"
         id="path12878"
         style="fill:#0044aa;fill-opacity:1;stroke:none;stroke-width:9.375" /><g
         id="g1029"><path
           id="path12949"
           d="m 212.82393,166.14904 c -4.33594,21.51937 1.89488,46.15172 10.60547,75.9375 0.52594,1.79709 -0.49312,4.09659 -1.41356,4.36453 -3.95494,1.15134 -10.73588,-0.075 -12.04828,-2.76863 -6.78732,-13.9365 -10.01494,-28.18837 -17.94366,-41.90821 -5.48428,-9.49004 -11.15747,-18.54507 -17.91506,-24.66797 -8.20819,-7.43728 -14.64028,-8.89885 -23.42288,-5.22947 -11.07919,4.62881 -17.77247,15.72684 -20.06831,25.67869 -2.32978,10.09931 -1.35506,21.75778 0.46781,31.875 2.14547,11.90765 4.87491,21.30459 8.38303,32.44734 -2.67656,7.91381 -18.78534,51.34781 -22.6799,81.45891 -4.9996,38.65443 -19.060034,155.61225 109.81303,142.60884 47.5335,-4.79616 86.26706,-21.45478 122.92134,-38.54635 16.797,-7.83225 37.86853,-17.93653 58.125,-29.0625 20.26632,-11.13131 39.06741,-22.99575 53.4375,-35.62499 14.39335,-12.64979 24.87769,-26.50669 22.96875,-40.3125 -3.0764,-22.24875 -17.83153,-38.7885 -37.5,-51.5625 -19.74168,-12.82144 -53.451,-24.73566 -77.81409,-31.85391 -31.96706,-9.33985 -56.71463,-12.97022 -86.71716,-14.60269 -1.68,-30.39656 2.37169,-70.39631 -16.87537,-93.69872 -4.45763,-5.39681 -10.95591,-8.82787 -18.75,-9.375 -12.52566,0.50438 -29.54869,4.86666 -33.57366,24.84263 z"
           style="fill:#ffffff;fill-opacity:1;stroke:none;stroke-width:9.375" /><g
           style="fill:#ffffff;stroke:#ffffff;stroke-opacity:1"
           transform="matrix(1.6173551,0,0,1.6173551,-1485.5115,-62.807462)"
           id="g153"><path
             d="m 1212.5374,120.93165 c -5.8954,-4.87644 -52.1257,68.06508 -41.903,75.63449 6.1468,4.59854 44.5364,-73.03416 41.903,-75.63449 z"
             id="path13"
             style="fill:#ffffff;stroke:#ffffff;stroke-width:3.96997pt;stroke-opacity:1" /><path
             d="m 1159.3921,110.71143 c -2.9179,-3.3877 -18.4008,75.21764 -11.2416,78.69798 6.1468,4.59855 16.8525,-74.60891 11.2416,-78.69798 z"
             id="path18"
             style="fill:#ffffff;stroke:#ffffff;stroke-width:3.96997pt;stroke-opacity:1" /></g></g></g></g></svg>
