<?xml version="1.0" encoding="UTF-8" standalone="no"?>
<!-- Created with Inkscape (http://www.inkscape.org/) -->

<svg
   width="512"
   height="512"
   viewBox="0 0 512 512"
   version="1.1"
   id="svg1"
   xml:space="preserve"
   inkscape:version="1.4.2 (f4327f4, 2025-05-13)"
   sodipodi:docname="yaml.svg"
   xmlns:inkscape="http://www.inkscape.org/namespaces/inkscape"
   xmlns:sodipodi="http://sodipodi.sourceforge.net/DTD/sodipodi-0.dtd"
   xmlns="http://www.w3.org/2000/svg"
   xmlns:svg="http://www.w3.org/2000/svg"><sodipodi:namedview
     id="namedview1"
     pagecolor="#ffffff"
     bordercolor="#999999"
     borderopacity="1"
     inkscape:showpageshadow="2"
     inkscape:pageopacity="0"
     inkscape:pagecheckerboard="0"
     inkscape:deskcolor="#d1d1d1"
     inkscape:document-units="px"
     showgrid="false"
     inkscape:zoom="1"
     inkscape:cx="160.5"
     inkscape:cy="323"
     inkscape:window-width="1920"
     inkscape:window-height="991"
     inkscape:window-x="-9"
     inkscape:window-y="-9"
     inkscape:window-maximized="1"
     inkscape:current-layer="layer1"><inkscape:grid
       id="grid1"
       units="mm"
       originx="0"
       originy="0"
       spacingx="1"
       spacingy="1"
       empcolor="#0099e5"
       empopacity="0.30196078"
       color="#0099e5"
       opacity="0.14901961"
       empspacing="5"
       enabled="true"
       visible="false" /></sodipodi:namedview><defs
     id="defs1"><inkscape:path-effect
       effect="fillet_chamfer"
       id="path-effect1"
       is_visible="true"
       lpeversion="1"
       nodesatellites_param="F,0,0,1,0,2.2572315,0,1 @ F,0,0,1,0,2.608162,0,1 @ F,0,0,1,0,2.5997618,0,1 @ F,0,0,1,0,3.0078049,0,1 @ F,0,0,1,0,2.2522004,0,1 @ F,0,0,1,0,2.8010871,0,1"
       radius="0"
       unit="px"
       method="auto"
       mode="F"
       chamfer_steps="1"
       flexible="false"
       use_knot_distance="true"
       apply_no_radius="true"
       apply_with_radius="true"
       only_selected="false"
       hide_knots="false" /></defs><g
     inkscape:label="Layer 1"
     inkscape:groupmode="layer"
     id="layer1"><circle
       style="fill:#2e3548;fill-opacity:1;stroke:#858585;stroke-width:8;stroke-dasharray:none;stroke-opacity:1"
       id="path1"
       inkscape:label="background"
       cx="256.00003"
       cy="256.00006"
       r="241.31339" /><g
       style="clip-rule:evenodd;fill-rule:evenodd;image-rendering:optimizeQuality;shape-rendering:geometricPrecision;text-rendering:geometricPrecision"
       id="g1"
       transform="matrix(0.65675668,0,0,0.65675668,117.75272,87.999999)"><path
         fill="#e44b4d"
         d="M 95.705,0.014 H 294.799 L 421,136.548 v 317.555 c 0,31.54 -25.961,57.502 -57.502,57.502 H 95.705 c -31.55,0 -57.502,-25.873 -57.502,-57.502 V 57.515 c 0,-31.629 25.873,-57.501 57.502,-57.501 z"
         id="path1-0" /><path
         fill="#cd4445"
         d="m 341.028,133.408 h -0.019 L 421,188.771 v -52.066 h -54.357 c -9.458,-0.15 -17.998,-1.274 -25.615,-3.297 z"
         id="path2" /><path
         fill="#fbcfd0"
         d="M 294.8,0 421,136.533 v 0.172 H 366.643 C 321.575,135.987 297.313,113.308 294.8,75.321 Z"
         id="path3" /><path
         fill="#cd4445"
         fill-rule="nonzero"
         d="M 0,431.901 V 253.404 l 0.028,-1.261 c 0.668,-16.446 14.333,-29.706 30.936,-29.706 h 7.238 v 50.589 h 354.304 c 12.862,0 23.373,10.51 23.373,23.371 v 135.504 c 0,12.83 -10.543,23.373 -23.373,23.373 H 23.373 C 10.541,455.274 0,444.75 0,431.901 Z"
         id="path4" /><path
         fill="#963232"
         fill-rule="nonzero"
         d="m 143.448,240.364 a 8.496,8.496 0 0 1 -8.496,-8.497 8.496,8.496 0 0 1 8.496,-8.497 h 163.176 a 8.496,8.496 0 0 1 8.496,8.497 8.496,8.496 0 0 1 -8.496,8.497 z m 0,-59.176 a 8.4965,8.4965 0 0 1 0,-16.993 h 172.304 a 8.4965,8.4965 0 1 1 0,16.993 z"
         id="path5" /><path
         fill="#ffffff"
         fill-rule="nonzero"
         d="m 11.329,276.171 v 154.728 c 0,7.793 6.38,14.178 14.179,14.178 h 365.996 c 7.799,0 14.178,-6.379 14.178,-14.178 V 297.405 c 0,-7.798 -6.392,-14.178 -14.178,-14.178 H 37.892 c -12.618,-0.096 -19.586,-1.638 -26.563,-7.056 z"
         id="path6" /><path
         fill="#1a1a1a"
         fill-rule="nonzero"
         d="m 82.196,319.678 7.206,28.828 h 0.916 l 7.339,-28.828 h 28.956 l -23.585,59.62 v 22.274 H 76.822 v -22.274 l -23.585,-59.62 z m 62.631,81.894 h -27.646 l 21.226,-81.894 h 40.488 l 21.226,81.894 h -27.648 l -3.012,-12.971 h -21.62 z m 13.104,-56.735 -5.374,22.93 h 12.055 l -5.241,-22.93 z m 71.278,56.735 h -27.386 l 4.98,-81.894 h 34.199 l 10.22,41.669 h 0.916 l 10.221,-41.669 h 34.199 l 4.979,81.894 h -27.385 l -1.573,-39.701 h -0.916 l -9.959,39.701 h -20.047 l -10.09,-39.701 h -0.785 z m 134.567,0 h -52.413 v -81.894 h 26.206 v 60.93 h 26.207 z"
         id="path7" /></g></g></svg>
